<svg xmlns="http://www.w3.org/2000/svg" viewBox="0 0 166.47 94.77"><defs><style>.cls-1{isolation:isolate;}.cls-2{fill-rule:evenodd;}</style></defs><title>en</title><g id="en" class="cls-1"><g id="en-2" data-name="en"><path class="cls-2" d="M36.84.87Q.42.87.43,37.44V58.75q0,18.91,8.9,27.74t27.51,8.83q18.44,0,27.43-7.16t9-21.94H51.78q0,10.19-14.62,10.18-7.48,0-11.13-3.74T22.37,58.43V56H73.25V37.44q0-18.91-8.91-27.74T36.84.87ZM22.37,38.08q0-9.39,3-13.84t12.08-4.45q8.74,0,11.69,4.3t2.94,14ZM158.23,8.9Q149.58.4,136.37.55a27.6,27.6,0,0,0-22.1,10.18l-1.11-9.54H94.24V95H116V36.49q0-16.22,15.1-16.22,14.16,0,14.16,17V95H166.9V37.12Q166.9,17.41,158.23,8.9Z" transform="translate(-0.43 -0.55)"/></g></g></svg>